<svg width="30" height="30" viewBox="0 0 30 30" fill="none" xmlns="http://www.w3.org/2000/svg">
<g clip-path="url(#clip0_430_767)">
<path d="M24.3236 26.9589L22.5986 23.8379L20.3457 24.8884L21.906 29.1054C22.2655 29.8764 23.1873 30.2173 23.9646 29.8547C24.74 29.4932 25.0755 28.5715 24.7139 27.7961L24.3236 26.9589Z" fill="#BFBFBF"/>
<path d="M7.57738 23.9205L5.67502 26.9589L5.28467 27.796C4.92309 28.5714 5.25859 29.4931 6.03396 29.8547C6.80049 30.2123 7.72785 29.8876 8.09259 29.1054L9.51015 24.8218L7.57738 23.9205Z" fill="#BFBFBF"/>
<path d="M5.67529 26.9587C6.3793 27.7802 7.18988 28.5075 8.08578 29.1194C8.08806 29.1146 8.09058 29.11 8.09287 29.1052L9.98673 25.0437L7.17881 23.7344L5.67529 26.9587Z" fill="#ACACAC"/>
<path d="M24.3241 26.9587L22.8206 23.7344L20.0127 25.0437L21.9066 29.1052C21.9088 29.1101 21.9114 29.1146 21.9137 29.1194C22.8096 28.5076 23.6201 27.7803 24.3241 26.9587Z" fill="#ACACAC"/>
<path d="M6.30748 7.53027L5.78306 7.20209L4.77197 8.21312L5.09793 8.73999L7.92132 11.5634L9.13093 10.3537L6.30748 7.53027Z" fill="#ACACAC"/>
<path d="M2.97705 6.61987L4.18652 5.41041L6.30611 7.53L5.09664 8.73946L2.97705 6.61987Z" fill="#9C9C9C"/>
<path d="M2.00302 4.55535C0.81456 5.80808 0.833662 7.78673 2.06202 9.01509L2.58403 9.5371C2.72718 9.68025 2.95927 9.68025 3.10247 9.5371L6.98478 5.65474C7.12792 5.5116 7.12792 5.27945 6.98478 5.13631L6.46276 4.6143C5.23435 3.38594 3.25575 3.3669 2.00302 4.55535Z" fill="#EB5569"/>
<path d="M25.3623 8.0035L24.3785 7.01965L23.606 7.61608L20.8682 10.3539L22.0778 11.5635L24.8157 8.82568L25.3623 8.0035Z" fill="#ACACAC"/>
<path d="M16.2066 4.11191V1.51697H13.7921V4.11191H13.7163V10.2537H16.2824V4.11191H16.2066Z" fill="#ACACAC"/>
<path d="M13.7163 1.85938H16.2824V4.11207H13.7163V1.85938Z" fill="#9C9C9C"/>
<path d="M18.647 1.54266C18.647 0.690703 17.9563 0 17.1043 0H12.7238C11.8718 0 11.1812 0.690703 11.1812 1.54266C11.1812 2.39467 11.8719 3.08531 12.7238 3.08531H17.1043C17.9563 3.08531 18.647 2.39467 18.647 1.54266Z" fill="#EB5569"/>
<path d="M23.603 7.61786L25.8082 5.41272L27.0176 6.62219L24.8125 8.82733L23.603 7.61786Z" fill="#9C9C9C"/>
<path d="M17.2755 0H15.5645C16.4165 0 17.1071 0.690703 17.1071 1.54266C17.1071 2.39467 16.4164 3.08531 15.5645 3.08531H17.2755C18.1275 3.08531 18.8182 2.39467 18.8182 1.54266C18.8182 0.690703 18.1275 0 17.2755 0Z" fill="#E53950"/>
<path d="M27.8757 4.43542C26.623 3.24696 24.6443 3.26601 23.416 4.49436L22.894 5.01637C22.7508 5.15952 22.7508 5.39167 22.894 5.53481L26.7763 9.41717C26.9195 9.56031 27.1516 9.56031 27.2947 9.41717L27.8167 8.89516C29.0451 7.6668 29.0642 5.68815 27.8757 4.43542Z" fill="#EB5569"/>
<path d="M27.9378 4.4944C27.7282 4.28476 27.4964 4.1112 27.2503 3.97192C27.9405 5.19132 27.7669 6.7672 26.7278 7.80624L26.2058 8.32825C26.0627 8.4714 25.8307 8.4714 25.6875 8.32837L26.8973 9.53816C27.0404 9.6813 27.2725 9.6813 27.4157 9.53816L27.9377 9.01614C29.1864 7.76751 29.1864 5.74304 27.9378 4.4944Z" fill="#E53950"/>
<path d="M6.58371 4.49317C5.33508 3.24454 3.31061 3.24454 2.06197 4.49317C1.85238 4.70276 1.67877 4.93462 1.53955 5.18065C2.75895 4.49048 4.33482 4.66409 5.37381 5.70308L5.89582 6.22509C6.03896 6.36823 6.03896 6.60038 5.89582 6.74352L3.1023 9.53703C3.10236 9.53698 3.10236 9.53698 3.10242 9.53698L7.10572 5.53362C7.24887 5.39048 7.24887 5.15833 7.10572 5.01519L6.58371 4.49317Z" fill="#E53950"/>
<path d="M14.9998 29.5401C21.7791 29.5401 27.2749 24.0443 27.2749 17.2649C27.2749 10.4855 21.7791 4.98975 14.9998 4.98975C8.22038 4.98975 2.72461 10.4855 2.72461 17.2649C2.72461 24.0443 8.22038 29.5401 14.9998 29.5401Z" fill="#EB5569"/>
<path d="M14.9996 4.98975C14.7162 4.98975 14.4353 5.00023 14.1567 5.0191C20.5429 5.45223 25.5891 10.7688 25.5891 17.2649C25.5891 23.761 20.5429 29.0775 14.1567 29.5107C14.4353 29.5296 14.7162 29.5401 14.9996 29.5401C21.7789 29.5401 27.2747 24.0443 27.2747 17.2649C27.2747 10.4855 21.7789 4.98975 14.9996 4.98975Z" fill="#E53950"/>
<path d="M14.9996 27.4021C20.598 27.4021 25.1363 22.8637 25.1363 17.2653C25.1363 11.6669 20.598 7.12854 14.9996 7.12854C9.40118 7.12854 4.86279 11.6669 4.86279 17.2653C4.86279 22.8637 9.40118 27.4021 14.9996 27.4021Z" fill="#E8EDF2"/>
<path d="M14.9997 7.12854C14.6823 7.12854 14.3686 7.14395 14.0586 7.17266C19.2084 7.64903 23.2543 11.9932 23.2543 17.2654C23.2543 22.5375 19.2085 26.8817 14.0586 27.3581C14.3686 27.3867 14.6823 27.4022 14.9997 27.4022C20.5891 27.4022 25.1364 22.8548 25.1364 17.2654C25.1364 11.6759 20.5891 7.12854 14.9997 7.12854Z" fill="#D9E7EC"/>
<path d="M15.0455 16.9843C14.7954 16.9843 14.5928 16.7816 14.5928 16.5316V11.7814C14.5928 11.5314 14.7954 11.3287 15.0455 11.3287C15.2955 11.3287 15.4982 11.5314 15.4982 11.7814V16.5316C15.4982 16.7816 15.2955 16.9843 15.0455 16.9843Z" fill="#838383"/>
<path d="M18.6411 17.7175H15.3878C15.1377 17.7175 14.9351 17.5148 14.9351 17.2648C14.9351 17.0148 15.1377 16.8121 15.3878 16.8121H18.6411C18.8911 16.8121 19.0938 17.0148 19.0938 17.2648C19.0938 17.5148 18.8911 17.7175 18.6411 17.7175Z" fill="#9C9C9C"/>
<path d="M15.0453 18.8836C15.9395 18.8836 16.6644 18.1587 16.6644 17.2645C16.6644 16.3703 15.9395 15.6454 15.0453 15.6454C14.1511 15.6454 13.4263 16.3703 13.4263 17.2645C13.4263 18.1587 14.1511 18.8836 15.0453 18.8836Z" fill="#FBC56D"/>
<path d="M4.8734 17.7176H7.2144C7.46442 17.7176 7.66709 17.5149 7.66709 17.2649C7.66709 17.0149 7.46442 16.8122 7.2144 16.8122H4.8734C4.86678 16.9624 4.86279 17.1132 4.86279 17.2649C4.86279 17.4166 4.86678 17.5675 4.8734 17.7176Z" fill="#ACACAC"/>
<path d="M14.9996 24.5977C14.7496 24.5977 14.5469 24.8004 14.5469 25.0504V27.3914C14.697 27.3981 14.8479 27.4021 14.9996 27.4021C15.1513 27.4021 15.3022 27.3981 15.4523 27.3914V25.0504C15.4523 24.8004 15.2496 24.5977 14.9996 24.5977Z" fill="#ACACAC"/>
<path d="M14.9996 7.12854C14.8478 7.12854 14.697 7.13252 14.5469 7.13915V9.48021C14.5469 9.73023 14.7496 9.9329 14.9996 9.9329C15.2496 9.9329 15.4523 9.73023 15.4523 9.48021V7.13915C15.3022 7.13252 15.1513 7.12854 14.9996 7.12854Z" fill="#ACACAC"/>
<path d="M15.0454 15.6454C14.7689 15.6454 14.506 15.7192 14.2754 15.8474C14.7765 16.1263 15.1245 16.6634 15.1245 17.2645C15.1245 17.8656 14.7766 18.4026 14.2754 18.6815C14.506 18.8097 14.7689 18.8835 15.0454 18.8835C15.923 18.8835 16.6644 18.142 16.6644 17.2644C16.6644 16.3868 15.923 15.6454 15.0454 15.6454Z" fill="#E9B665"/>
<path d="M25.1257 16.8121H22.7847C22.5347 16.8121 22.332 17.0148 22.332 17.2648C22.332 17.5148 22.5347 17.7175 22.7847 17.7175H25.1257C25.1323 17.5673 25.1363 17.4165 25.1363 17.2648C25.1363 17.1131 25.1323 16.9622 25.1257 16.8121Z" fill="#ACACAC"/>
<path d="M25.1337 17.0351C25.1319 16.9606 25.1293 16.8863 25.1261 16.8121V16.8121H23.2441C23.2508 16.9622 23.2545 17.1131 23.2545 17.2648C23.2545 17.4166 23.2508 17.5674 23.2441 17.7175H25.1261C25.1293 17.6433 25.1319 17.569 25.1337 17.4945C25.1354 17.4184 25.1366 17.3422 25.1367 17.2657C25.1367 17.2654 25.1367 17.2651 25.1367 17.2648C25.1367 17.188 25.1355 17.1115 25.1337 17.0351Z" fill="#9C9C9C"/>
<path d="M14.9997 27.8543C9.16064 27.8543 4.41016 23.1039 4.41016 17.2648C4.41016 11.4258 9.16058 6.67535 14.9997 6.67535C20.8388 6.67535 25.5892 11.4257 25.5892 17.2648C25.5892 23.1039 20.8388 27.8543 14.9997 27.8543ZM14.9997 7.58074C9.65986 7.58074 5.31561 11.925 5.31561 17.2648C5.31561 22.6046 9.65986 26.9489 14.9997 26.9489C20.3395 26.9489 24.6838 22.6046 24.6838 17.2648C24.6838 11.925 20.3395 7.58074 14.9997 7.58074Z" fill="#F58A97"/>
</g>
<defs>
<clipPath id="clip0_430_767">
<rect width="30" height="30" fill="white"/>
</clipPath>
</defs>
</svg>
