<svg width="118" height="100" viewBox="0 0 118 100" fill="none" xmlns="http://www.w3.org/2000/svg">
<path d="M0.142333 79.5314C1.36929 74.3135 13.3511 74.4067 18.8496 77.6679C15.3808 76.441 9.76107 71.9531 14.3054 68.9249C17.1986 66.9682 21.6217 68.3813 25.0602 72.2637C23.1919 70.5529 21.5791 68.5698 20.2735 66.3781C18.1832 63.3343 17.7439 57.4798 22.7274 55.0727C26.9385 53.0228 33.3308 54.669 36.4663 59.6539C38.3914 63.1446 39.4329 67.074 39.4959 71.0834C39.4959 68.3503 39.5867 63.1324 45.2065 63.5517C51.0686 63.9865 49.6448 70.9903 49.7508 74.5309C49.7508 74.5309 49.5236 64.3748 55.931 60.5546C57.366 59.6391 58.9895 59.0795 60.6725 58.9205C62.3555 58.7614 64.0515 59.0072 65.6255 59.6383C67.3488 60.1801 68.7935 61.3981 69.6447 63.027C70.4959 64.656 70.6846 66.5638 70.1698 68.3347C68.9428 72.4966 64.4137 76.1149 64.4137 76.1149C66.8379 74.8388 69.3736 73.799 71.9875 73.0091C77.1528 71.9686 85.5295 71.658 88.8468 76.1149C92.1641 80.5718 87.332 86.8767 77.7739 87.1563C71.4573 87.3426 17.7439 87.5445 11.4122 87.5445C6.41345 87.529 -1.13007 84.9822 0.142333 79.5314Z" fill="url(#paint0_linear_3693_784)"/>
<path d="M117.87 72.0929C116.718 66.5644 105.433 66.6421 100.253 70.1051C103.525 68.7851 108.766 64.0332 104.555 60.7875C101.843 58.7221 97.6778 60.2129 94.4362 64.3282C96.2311 62.4895 97.7613 60.3979 98.9805 58.1165C100.935 54.9019 101.328 48.7989 96.6326 46.1278C92.6791 43.9382 86.6655 45.693 83.6965 50.9885C81.8881 54.7706 80.9305 58.9205 80.8942 63.1324C80.8942 60.2285 80.8185 54.6845 75.532 55.1349C70.0031 55.6007 71.3512 63.0393 71.2755 66.7974C71.2755 66.7974 71.4724 55.9268 65.4436 52.0135C64.1434 51.0523 62.6206 50.4564 61.0263 50.2847C59.432 50.1131 57.8217 50.3718 56.3551 51.0351C54.6596 51.7675 53.2867 53.1146 52.4987 54.8191C51.7108 56.5236 51.5629 58.4659 52.0834 60.2751C53.0226 64.6233 57.3548 68.3503 57.3548 68.3503C55.0737 67.0202 52.6684 65.9277 50.1748 65.0891C45.3124 64.0021 37.4205 63.676 34.3001 68.3969C31.1797 73.1178 35.6786 79.842 44.7217 80.137C50.6747 80.3234 101.253 80.5563 107.221 80.5563C111.962 80.6029 119.066 77.8853 117.87 72.0929Z" fill="url(#paint1_linear_3693_784)"/>
<path d="M63.9443 1.57375C63.9443 1.57375 70.5184 -0.227653 72.8814 4.40008C72.4465 5.47974 71.7126 6.40514 70.7705 7.06198C69.8283 7.71882 68.719 8.07831 67.5798 8.09606C67.5798 8.09606 68.0493 2.55209 63.9443 1.57375Z" fill="#069FAD"/>
<path d="M75.4564 58.7679C69.3234 58.1153 63.5076 55.6495 58.7165 51.6703C53.9255 47.6912 50.3657 42.3703 48.4704 36.3551C46.575 30.3398 46.4258 23.8895 48.0408 17.7889C49.6558 11.6882 52.9654 6.2003 57.567 1.99274C50.3033 2.33783 43.2747 4.7378 37.2597 8.92673C31.2448 13.1157 26.4785 18.93 23.4889 25.7255C20.4994 32.521 19.4032 40.0323 20.322 47.4273C21.2408 54.8223 24.1386 61.8121 28.6943 67.6223C33.2501 73.4325 39.2859 77.8363 46.133 80.3456C52.9801 82.855 60.3712 83.372 67.4874 81.8393C74.6035 80.3067 81.1668 76.7842 86.4501 71.6622C91.7334 66.5402 95.5304 60.0187 97.4204 52.8202C91.0627 57.5067 83.2422 59.6244 75.4564 58.7679Z" fill="#FFB842"/>
<path d="M49.2207 31.7011C48.193 27.914 47.8996 23.957 48.3573 20.0541C49.2964 12.1031 54.3103 4.5248 65.0197 2.3507C65.1286 2.31691 65.224 2.24809 65.2919 2.1544C65.3597 2.06071 65.3963 1.94714 65.3963 1.83047C65.3963 1.7138 65.3597 1.60022 65.2919 1.50654C65.224 1.41285 65.1286 1.34403 65.0197 1.31024C45.8125 -4.63749 26.7568 10.7676 20.7432 25.303C26.6659 35.9717 46.9637 33.7354 49.2207 31.7011Z" fill="url(#paint2_linear_3693_784)"/>
<path d="M35.8755 40.8323H35.618C34.0841 40.6676 32.5988 40.1848 31.2525 39.4133C29.9063 38.6418 28.7271 37.5976 27.7867 36.3444C27.7218 36.2606 27.6742 36.1643 27.6466 36.0612C27.619 35.9581 27.6121 35.8503 27.6263 35.7444C27.6404 35.6385 27.6754 35.5366 27.729 35.4449C27.7826 35.3531 27.8537 35.2735 27.9381 35.2107C28.1072 35.0797 28.3198 35.0225 28.5298 35.0516C28.7398 35.0807 28.93 35.1937 29.0591 35.366C29.0591 35.366 31.8614 39.0775 35.6786 39.2018C38.0416 39.2018 40.3743 37.9594 42.601 35.3194C42.7435 35.1577 42.9417 35.0592 43.1537 35.0447C43.3658 35.0302 43.575 35.1009 43.7371 35.2418C43.8165 35.3116 43.8815 35.397 43.9283 35.4928C43.9752 35.5887 44.0029 35.6931 44.01 35.8001C44.017 35.9071 44.0032 36.0144 43.9694 36.1159C43.9355 36.2173 43.8823 36.3108 43.8129 36.391C41.3286 39.3415 38.6627 40.8323 35.8755 40.8323Z" fill="#4F4840"/>
<path d="M36.3908 40.2733H35.4668V44.9942H36.3908V40.2733Z" fill="#4F4840"/>
<path d="M37.5231 39.9822L36.6201 40.1834L37.598 44.7966L38.5009 44.5955L37.5231 39.9822Z" fill="#4F4840"/>
<path d="M38.8811 39.5874L38.001 39.8759L39.4033 44.3726L40.2834 44.0841L38.8811 39.5874Z" fill="#4F4840"/>
<path d="M40.0574 39.0533L39.2212 39.4564L41.1804 43.7287L42.0166 43.3256L40.0574 39.0533Z" fill="#4F4840"/>
<path d="M41.1691 38.3554L40.3892 38.8634L42.8586 42.8481L43.6385 42.3401L41.1691 38.3554Z" fill="#4F4840"/>
<path d="M42.228 37.4396L41.4824 37.9992L44.2027 41.8083L44.9483 41.2487L42.228 37.4396Z" fill="#4F4840"/>
<path d="M43.2053 36.6073L42.5073 37.2281L45.5248 40.7942L46.2227 40.1735L43.2053 36.6073Z" fill="#4F4840"/>
<path d="M34.283 39.9774L33.3052 44.5906L34.2081 44.7918L35.1859 40.1785L34.283 39.9774Z" fill="#4F4840"/>
<path d="M32.93 39.5689L31.5269 44.0654L32.4069 44.354L33.81 39.8576L32.93 39.5689Z" fill="#4F4840"/>
<path d="M31.7615 39.0584L29.8022 43.3307L30.6384 43.7338L32.5977 39.4615L31.7615 39.0584Z" fill="#4F4840"/>
<path d="M30.6334 38.351L28.166 42.337L28.9462 42.8446L31.4136 38.8586L30.6334 38.351Z" fill="#4F4840"/>
<path d="M29.5802 37.4577L26.8599 41.2668L27.6054 41.8264L30.3257 38.0173L29.5802 37.4577Z" fill="#4F4840"/>
<path d="M28.6086 36.6055L25.5918 40.1721L26.2899 40.7928L29.3067 37.2261L28.6086 36.6055Z" fill="#4F4840"/>
<path d="M65.7619 56.1132C62.8811 58.4095 59.3791 59.7382 55.7342 59.9178C52.3411 59.7936 49.2813 57.5419 47.1758 55.6162C46.7558 55.9922 46.3047 56.3299 45.8276 56.6256C54.3709 66.7973 65.1409 60.5856 68.5945 57.2623C67.6035 57.0138 66.6505 56.6271 65.7619 56.1132Z" fill="#4F4840"/>
<path d="M44.4646 57.7437C44.0487 57.7464 43.6349 57.6836 43.2376 57.5574C43.1623 57.5268 43.0937 57.481 43.0359 57.4227C42.9781 57.3644 42.9323 57.2948 42.9013 57.2181C42.8702 57.1413 42.8545 57.059 42.855 56.9759C42.8555 56.8928 42.8723 56.8107 42.9043 56.7343C42.9651 56.5782 43.0836 56.4531 43.234 56.3862C43.3844 56.3192 43.5545 56.316 43.7072 56.3772C43.8132 56.3772 46.3277 57.3245 48.4181 53.349C48.5011 53.21 48.633 53.1089 48.7866 53.0666C48.9401 53.0243 49.1037 53.044 49.2435 53.1217C49.3833 53.1993 49.4887 53.329 49.5381 53.4839C49.5874 53.6389 49.5769 53.8073 49.5087 53.9546C47.8273 57.1692 45.7521 57.7437 44.4646 57.7437Z" fill="#4F4840"/>
<path d="M113.871 90.9765C112.613 85.0443 100.147 85.153 94.4363 88.8334C98.0414 87.4358 103.828 82.3422 99.1927 78.8947C96.1631 76.674 91.6188 78.2735 88.0137 82.6838C89.9789 80.7147 91.6573 78.4658 92.9973 76.0062C95.1634 72.5587 95.5875 65.9432 90.407 63.179C86.0445 60.8496 79.3947 62.7287 76.138 68.3813C73.0176 73.8011 73.1084 81.3638 73.1084 81.3638C73.1084 78.258 73.0024 72.3413 67.1706 72.8072C61.1115 73.3041 62.6263 81.2707 62.49 85.2306C62.49 85.2306 62.7172 73.6924 56.0522 69.4063C54.5973 68.3708 52.9092 67.732 51.1469 67.55C49.3847 67.368 47.6062 67.6487 45.979 68.3658C44.1329 69.1159 42.6274 70.5469 41.7584 72.3775C40.8894 74.2081 40.7199 76.3058 41.2833 78.258C42.4345 82.9168 47.1454 86.9544 47.1454 86.9544C44.6277 85.5312 41.9792 84.3661 39.2384 83.4758C33.8609 82.2956 25.1662 81.9229 21.7126 87.001C18.2589 92.0791 23.2273 99.2381 33.2247 99.5487C39.7837 99.7661 95.6027 99.999 102.177 99.999C107.372 100.061 115.128 97.1727 113.871 90.9765Z" fill="url(#paint3_linear_3693_784)"/>
<path d="M69.7761 32.726L60.6876 33.223L60.5967 31.4837L66.3376 23.1134L60.7936 23.424L60.5967 21.4984L68.8067 21.0635L68.8976 22.7562L63.1415 31.1576L69.6853 30.8159L69.7761 32.726Z" fill="#4F4840"/>
<path d="M71.9116 28.2381L71.1997 26.4211L75.1229 24.8682L75.8349 26.7628L71.9116 28.2381Z" fill="#4F4840"/>
<path d="M79.5007 28.7195L78.6524 27.3063L79.2583 20.2871L76.047 22.3369L75.1836 20.8927L80.5307 17.4918L81.3941 18.9205L80.7882 25.9087L84.6054 23.4706L85.484 24.9303L79.5007 28.7195Z" fill="#4F4840"/>
<path d="M85.7413 20.2871L84.2266 18.9981L86.9228 15.6749L88.4376 16.9638L85.7413 20.2871Z" fill="#4F4840"/>
<path d="M92.6335 16.2805L91.1188 15.5817L87.9378 9.3389L86.3473 12.8796L84.8325 12.1652L87.4985 6.31068L89.0133 7.02503L92.2397 13.2368L94.118 9.02831L95.6328 9.75819L92.6335 16.2805Z" fill="#4F4840"/>
<path d="M17.8802 17.9732L15.0325 14.4636L10.6094 14.8673L12.9876 11.0161L11.2456 6.82314L15.5475 7.95678L18.8951 4.95963L19.1829 9.50971L23.0001 11.8546L18.8648 13.5318L17.8802 17.9732Z" fill="#FFB842"/>
<path d="M97.5871 37.9283L95.2999 33.5491L90.4678 32.99L93.8305 29.4028L92.8459 24.5265L97.2236 26.7007L101.435 24.2315L100.783 29.1698L104.373 32.5241L99.5866 33.4093L97.5871 37.9283Z" fill="#FFB842"/>
<path d="M76.956 47.4634L74.7293 44.342L70.9575 44.4507L73.1691 41.3137L71.9118 37.6644L75.5018 38.8446L78.4859 36.4841L78.501 40.3665L81.6214 42.5406L78.0314 43.7518L76.956 47.4634Z" fill="#FFB842"/>
<defs>
<linearGradient id="paint0_linear_3693_784" x1="89.8905" y1="87.5445" x2="-25.6028" y2="63.4432" gradientUnits="userSpaceOnUse">
<stop stop-color="#C150F6"/>
<stop offset="1" stop-color="#EEA4CE"/>
</linearGradient>
<linearGradient id="paint1_linear_3693_784" x1="118.003" y1="80.5569" x2="8.22631" y2="60.2056" gradientUnits="userSpaceOnUse">
<stop stop-color="#C150F6"/>
<stop offset="1" stop-color="#EEA4CE"/>
</linearGradient>
<linearGradient id="paint2_linear_3693_784" x1="65.3963" y1="33.4018" x2="6.16044" y2="27.2741" gradientUnits="userSpaceOnUse">
<stop stop-color="#C150F6"/>
<stop offset="1" stop-color="#EEA4CE"/>
</linearGradient>
<linearGradient id="paint3_linear_3693_784" x1="114.006" y1="100" x2="-6.78939" y2="76.9053" gradientUnits="userSpaceOnUse">
<stop stop-color="#C150F6"/>
<stop offset="1" stop-color="#EEA4CE"/>
</linearGradient>
</defs>
</svg>
